<svg id="visual" viewBox="0 0 960 540" width="960" height="540" xmlns="http://www.w3.org/2000/svg" xmlns:xlink="http://www.w3.org/1999/xlink" version="1.1"><path d="M0 71L26.7 68.3C53.3 65.7 106.7 60.3 160 60.3C213.3 60.3 266.7 65.7 320 75.5C373.3 85.3 426.7 99.7 480 106C533.3 112.3 586.7 110.7 640 108C693.3 105.3 746.7 101.7 800 93.5C853.3 85.3 906.7 72.7 933.3 66.3L960 60L960 0L933.3 0C906.7 0 853.3 0 800 0C746.7 0 693.3 0 640 0C586.7 0 533.3 0 480 0C426.7 0 373.3 0 320 0C266.7 0 213.3 0 160 0C106.7 0 53.3 0 26.7 0L0 0Z" fill="#4779db"></path><path d="M0 125L26.7 122.3C53.3 119.7 106.7 114.3 160 111.7C213.3 109 266.7 109 320 121.7C373.3 134.3 426.7 159.7 480 170.5C533.3 181.3 586.7 177.7 640 174C693.3 170.3 746.7 166.7 800 158.5C853.3 150.3 906.7 137.7 933.3 131.3L960 125L960 58L933.3 64.3C906.7 70.7 853.3 83.3 800 91.5C746.7 99.7 693.3 103.3 640 106C586.7 108.7 533.3 110.3 480 104C426.7 97.7 373.3 83.3 320 73.5C266.7 63.7 213.3 58.3 160 58.3C106.7 58.3 53.3 63.7 26.7 66.3L0 69Z" fill="#3268d3"></path><path d="M0 158L26.7 162.5C53.3 167 106.7 176 160 176C213.3 176 266.7 167 320 175C373.3 183 426.7 208 480 216C533.3 224 586.7 215 640 211.5C693.3 208 746.7 210 800 202C853.3 194 906.7 176 933.3 167L960 158L960 123L933.3 129.3C906.7 135.7 853.3 148.3 800 156.5C746.7 164.7 693.3 168.3 640 172C586.7 175.7 533.3 179.3 480 168.5C426.7 157.7 373.3 132.3 320 119.7C266.7 107 213.3 107 160 109.7C106.7 112.3 53.3 117.7 26.7 120.3L0 123Z" fill="#1757ca"></path><path d="M0 222L26.7 230.2C53.3 238.3 106.7 254.7 160 255.7C213.3 256.7 266.7 242.3 320 244.2C373.3 246 426.7 264 480 275.7C533.3 287.3 586.7 292.7 640 295.3C693.3 298 746.7 298 800 289C853.3 280 906.7 262 933.3 253L960 244L960 156L933.3 165C906.7 174 853.3 192 800 200C746.7 208 693.3 206 640 209.5C586.7 213 533.3 222 480 214C426.7 206 373.3 181 320 173C266.7 165 213.3 174 160 174C106.7 174 53.3 165 26.7 160.5L0 156Z" fill="#004bba"></path><path d="M0 347L26.7 356C53.3 365 106.7 383 160 393.7C213.3 404.3 266.7 407.7 320 404C373.3 400.3 426.7 389.7 480 397C533.3 404.3 586.7 429.7 640 437.8C693.3 446 746.7 437 800 419.8C853.3 402.7 906.7 377.3 933.3 364.7L960 352L960 242L933.3 251C906.7 260 853.3 278 800 287C746.7 296 693.3 296 640 293.3C586.7 290.7 533.3 285.3 480 273.7C426.7 262 373.3 244 320 242.2C266.7 240.3 213.3 254.7 160 253.7C106.7 252.7 53.3 236.3 26.7 228.2L0 220Z" fill="#0044a6"></path><path d="M0 541L26.7 541C53.3 541 106.7 541 160 541C213.3 541 266.7 541 320 541C373.3 541 426.7 541 480 541C533.3 541 586.7 541 640 541C693.3 541 746.7 541 800 541C853.3 541 906.7 541 933.3 541L960 541L960 350L933.3 362.7C906.7 375.3 853.3 400.7 800 417.8C746.7 435 693.3 444 640 435.8C586.7 427.7 533.3 402.3 480 395C426.7 387.7 373.3 398.3 320 402C266.7 405.7 213.3 402.3 160 391.7C106.7 381 53.3 363 26.7 354L0 345Z" fill="#003c91"></path></svg>